<svg width="164" height="57" viewBox="0 0 164 57" fill="none" xmlns="http://www.w3.org/2000/svg">
<path d="M63.3072 45C62.9872 45 62.7152 44.888 62.4912 44.664C62.2672 44.44 62.1552 44.168 62.1552 43.848V12.6C62.1552 12.248 62.2672 11.96 62.4912 11.736C62.7152 11.512 62.9872 11.4 63.3072 11.4H75.7392C79.6112 11.4 82.6672 12.296 84.9072 14.088C87.1472 15.88 88.2672 18.488 88.2672 21.912C88.2672 24.28 87.6752 26.248 86.4912 27.816C85.3392 29.384 83.7872 30.52 81.8352 31.224L88.8432 43.464C88.9392 43.656 88.9872 43.832 88.9872 43.992C88.9872 44.28 88.8752 44.52 88.6512 44.712C88.4592 44.904 88.2352 45 87.9792 45H83.6112C83.0672 45 82.6512 44.856 82.3632 44.568C82.0752 44.28 81.8512 43.992 81.6912 43.704L75.4992 32.328H68.8272V43.848C68.8272 44.168 68.7152 44.44 68.4912 44.664C68.2992 44.888 68.0272 45 67.6752 45H63.3072ZM68.8272 26.904H75.5952C77.5472 26.904 79.0032 26.472 79.9632 25.608C80.9232 24.712 81.4032 23.464 81.4032 21.864C81.4032 20.264 80.9232 19.016 79.9632 18.12C79.0352 17.192 77.5792 16.728 75.5952 16.728H68.8272V26.904ZM100.164 45.48C98.5001 45.48 96.9961 45.16 95.6521 44.52C94.3081 43.848 93.2361 42.968 92.4361 41.88C91.6681 40.76 91.2841 39.512 91.2841 38.136C91.2841 35.896 92.1801 34.12 93.9721 32.808C95.7961 31.464 98.1961 30.568 101.172 30.12L107.748 29.16V28.152C107.748 26.808 107.412 25.768 106.74 25.032C106.068 24.296 104.916 23.928 103.284 23.928C102.132 23.928 101.188 24.168 100.452 24.648C99.7481 25.096 99.2201 25.704 98.8681 26.472C98.6121 26.888 98.2441 27.096 97.7641 27.096H93.9721C93.6201 27.096 93.3481 27 93.1561 26.808C92.9961 26.616 92.9161 26.36 92.9161 26.04C92.9481 25.528 93.1561 24.904 93.5401 24.168C93.9241 23.432 94.5321 22.728 95.3641 22.056C96.1961 21.352 97.2681 20.76 98.5801 20.28C99.8921 19.8 101.476 19.56 103.332 19.56C105.348 19.56 107.044 19.816 108.42 20.328C109.828 20.808 110.948 21.464 111.78 22.296C112.612 23.128 113.22 24.104 113.604 25.224C113.988 26.344 114.18 27.528 114.18 28.776V43.848C114.18 44.168 114.068 44.44 113.844 44.664C113.62 44.888 113.348 45 113.028 45H109.14C108.788 45 108.5 44.888 108.276 44.664C108.084 44.44 107.988 44.168 107.988 43.848V41.976C107.572 42.584 107.012 43.16 106.308 43.704C105.604 44.216 104.74 44.648 103.716 45C102.724 45.32 101.54 45.48 100.164 45.48ZM101.796 40.92C102.916 40.92 103.924 40.68 104.82 40.2C105.748 39.72 106.468 38.984 106.98 37.992C107.524 36.968 107.796 35.688 107.796 34.152V33.144L102.996 33.912C101.108 34.2 99.7001 34.664 98.7721 35.304C97.8441 35.944 97.3801 36.728 97.3801 37.656C97.3801 38.36 97.5881 38.968 98.0041 39.48C98.4521 39.96 99.0121 40.328 99.6841 40.584C100.356 40.808 101.06 40.92 101.796 40.92ZM130.424 45C128.504 45 126.888 44.664 125.576 43.992C124.264 43.32 123.288 42.328 122.648 41.016C122.008 39.672 121.688 38.008 121.688 36.024V25.128H117.896C117.576 25.128 117.304 25.016 117.08 24.792C116.856 24.568 116.744 24.296 116.744 23.976V21.192C116.744 20.872 116.856 20.6 117.08 20.376C117.304 20.152 117.576 20.04 117.896 20.04H121.688V12.072C121.688 11.752 121.784 11.48 121.976 11.256C122.2 11.032 122.488 10.92 122.84 10.92H126.728C127.048 10.92 127.32 11.032 127.544 11.256C127.768 11.48 127.88 11.752 127.88 12.072V20.04H133.88C134.2 20.04 134.472 20.152 134.696 20.376C134.92 20.6 135.032 20.872 135.032 21.192V23.976C135.032 24.296 134.92 24.568 134.696 24.792C134.472 25.016 134.2 25.128 133.88 25.128H127.88V35.544C127.88 36.856 128.104 37.88 128.552 38.616C129.032 39.352 129.848 39.72 131 39.72H134.312C134.632 39.72 134.904 39.832 135.128 40.056C135.352 40.28 135.464 40.552 135.464 40.872V43.848C135.464 44.168 135.352 44.44 135.128 44.664C134.904 44.888 134.632 45 134.312 45H130.424ZM149.802 45.48C147.242 45.48 145.082 45.032 143.322 44.136C141.594 43.24 140.266 41.976 139.338 40.344C138.442 38.712 137.93 36.808 137.802 34.632C137.77 34.056 137.754 33.352 137.754 32.52C137.754 31.688 137.77 30.984 137.802 30.408C137.93 28.2 138.458 26.296 139.386 24.696C140.346 23.064 141.69 21.8 143.418 20.904C145.178 20.008 147.306 19.56 149.802 19.56C152.298 19.56 154.41 20.008 156.138 20.904C157.898 21.8 159.242 23.064 160.17 24.696C161.13 26.296 161.674 28.2 161.802 30.408C161.834 30.984 161.85 31.688 161.85 32.52C161.85 33.352 161.834 34.056 161.802 34.632C161.674 36.808 161.146 38.712 160.218 40.344C159.322 41.976 157.994 43.24 156.234 44.136C154.506 45.032 152.362 45.48 149.802 45.48ZM149.802 40.728C151.498 40.728 152.81 40.2 153.738 39.144C154.666 38.056 155.178 36.472 155.274 34.392C155.306 33.912 155.322 33.288 155.322 32.52C155.322 31.752 155.306 31.128 155.274 30.648C155.178 28.6 154.666 27.032 153.738 25.944C152.81 24.856 151.498 24.312 149.802 24.312C148.106 24.312 146.794 24.856 145.866 25.944C144.938 27.032 144.426 28.6 144.33 30.648C144.298 31.128 144.282 31.752 144.282 32.52C144.282 33.288 144.298 33.912 144.33 34.392C144.426 36.472 144.938 38.056 145.866 39.144C146.794 40.2 148.106 40.728 149.802 40.728Z" fill="#000150"/>
<path d="M27 53C31.7467 53 36.3869 51.5924 40.3337 48.9553C44.2805 46.3181 47.3566 42.5698 49.1731 38.1844C50.9896 33.799 51.4649 28.9734 50.5388 24.3178C49.6128 19.6623 47.327 15.3859 43.9705 12.0294C40.6141 8.67299 36.3377 6.38721 31.6822 5.46116C27.0266 4.53512 22.201 5.0104 17.8156 6.8269C13.4302 8.6434 9.68188 11.7195 7.04473 15.6663C4.40758 19.6131 3 24.2533 3 29C3 32.84 3.90133 36.4667 5.50667 39.6853C6.71467 42.1147 5.03467 45.392 4.39467 47.784C4.25288 48.313 4.25285 48.8701 4.3946 49.3991C4.53634 49.9282 4.81485 50.4106 5.20213 50.7979C5.58942 51.1851 6.07183 51.4637 6.60088 51.6054C7.12993 51.7471 7.68696 51.7471 8.216 51.6053C10.608 50.9653 13.8853 49.2853 16.3147 50.496C19.6352 52.1448 23.2926 53.0018 27 53Z" stroke="#000150" stroke-width="6" stroke-linecap="round" stroke-linejoin="round"/>
<path d="M40.0771 16.0996C40.8153 16.1051 41.5225 16.3923 42.0488 16.8994C42.5093 17.3431 42.8004 17.9251 42.8789 18.5479L42.8994 18.8174C42.9163 19.4498 42.7137 20.0667 42.3291 20.5684L42.1533 20.7754L42.1484 20.7812L26.4863 40.0107C26.227 40.2839 25.9149 40.5037 25.5674 40.6562C25.2183 40.8095 24.8414 40.8924 24.459 40.8994C24.0764 40.9064 23.6956 40.8378 23.3408 40.6973C23.075 40.5919 22.8276 40.4477 22.6064 40.2705L22.3936 40.082L12.0068 29.8838L12.0049 29.8818L11.8057 29.6797C11.6176 29.4692 11.4621 29.2321 11.3457 28.9756C11.1904 28.6334 11.1073 28.264 11.1006 27.8896C11.0939 27.5153 11.1638 27.1432 11.3066 26.7959C11.4495 26.4486 11.6627 26.1332 11.9326 25.8682C12.2025 25.6032 12.5238 25.3934 12.8779 25.2529C13.2322 25.1125 13.6121 25.0432 13.9941 25.0498C14.3763 25.0564 14.7535 25.1393 15.1025 25.292C15.3641 25.4065 15.606 25.5586 15.8203 25.7432L16.0254 25.9385L16.0283 25.9414L24.248 34.0078L24.3271 34.085L24.3965 33.999L38.0264 16.9482L38.0967 16.8672C38.6304 16.3697 39.3404 16.0942 40.0771 16.0996Z" fill="#43C97B" stroke="black" stroke-width="0.2"/>
</svg>
