<svg width="300" height="300" viewBox="0 0 300 300" fill="none" xmlns="http://www.w3.org/2000/svg">
<rect width="300" height="300" fill="white"/>
<path d="M119.144 173C118.691 173 118.305 172.841 117.988 172.524C117.671 172.207 117.512 171.821 117.512 171.368V127.1C117.512 126.601 117.671 126.193 117.988 125.876C118.305 125.559 118.691 125.4 119.144 125.4H136.756C142.241 125.4 146.571 126.669 149.744 129.208C152.917 131.747 154.504 135.441 154.504 140.292C154.504 143.647 153.665 146.435 151.988 148.656C150.356 150.877 148.157 152.487 145.392 153.484L155.32 170.824C155.456 171.096 155.524 171.345 155.524 171.572C155.524 171.98 155.365 172.32 155.048 172.592C154.776 172.864 154.459 173 154.096 173H147.908C147.137 173 146.548 172.796 146.14 172.388C145.732 171.98 145.415 171.572 145.188 171.164L136.416 155.048H126.964V171.368C126.964 171.821 126.805 172.207 126.488 172.524C126.216 172.841 125.831 173 125.332 173H119.144ZM126.964 147.364H136.552C139.317 147.364 141.38 146.752 142.74 145.528C144.1 144.259 144.78 142.491 144.78 140.224C144.78 137.957 144.1 136.189 142.74 134.92C141.425 133.605 139.363 132.948 136.552 132.948H126.964V147.364ZM171.358 173.68C169.001 173.68 166.87 173.227 164.966 172.32C163.062 171.368 161.543 170.121 160.41 168.58C159.322 166.993 158.778 165.225 158.778 163.276C158.778 160.103 160.047 157.587 162.586 155.728C165.17 153.824 168.57 152.555 172.786 151.92L182.102 150.56V149.132C182.102 147.228 181.626 145.755 180.674 144.712C179.722 143.669 178.09 143.148 175.778 143.148C174.146 143.148 172.809 143.488 171.766 144.168C170.769 144.803 170.021 145.664 169.522 146.752C169.159 147.341 168.638 147.636 167.958 147.636H162.586C162.087 147.636 161.702 147.5 161.43 147.228C161.203 146.956 161.09 146.593 161.09 146.14C161.135 145.415 161.43 144.531 161.974 143.488C162.518 142.445 163.379 141.448 164.558 140.496C165.737 139.499 167.255 138.66 169.114 137.98C170.973 137.3 173.217 136.96 175.846 136.96C178.702 136.96 181.105 137.323 183.054 138.048C185.049 138.728 186.635 139.657 187.814 140.836C188.993 142.015 189.854 143.397 190.398 144.984C190.942 146.571 191.214 148.248 191.214 150.016V171.368C191.214 171.821 191.055 172.207 190.738 172.524C190.421 172.841 190.035 173 189.582 173H184.074C183.575 173 183.167 172.841 182.85 172.524C182.578 172.207 182.442 171.821 182.442 171.368V168.716C181.853 169.577 181.059 170.393 180.062 171.164C179.065 171.889 177.841 172.501 176.39 173C174.985 173.453 173.307 173.68 171.358 173.68ZM173.67 167.22C175.257 167.22 176.685 166.88 177.954 166.2C179.269 165.52 180.289 164.477 181.014 163.072C181.785 161.621 182.17 159.808 182.17 157.632V156.204L175.37 157.292C172.695 157.7 170.701 158.357 169.386 159.264C168.071 160.171 167.414 161.281 167.414 162.596C167.414 163.593 167.709 164.455 168.298 165.18C168.933 165.86 169.726 166.381 170.678 166.744C171.63 167.061 172.627 167.22 173.67 167.22ZM214.226 173C211.506 173 209.216 172.524 207.357 171.572C205.499 170.62 204.116 169.215 203.21 167.356C202.303 165.452 201.849 163.095 201.849 160.284V144.848H196.477C196.024 144.848 195.639 144.689 195.321 144.372C195.004 144.055 194.845 143.669 194.845 143.216V139.272C194.845 138.819 195.004 138.433 195.321 138.116C195.639 137.799 196.024 137.64 196.477 137.64H201.849V126.352C201.849 125.899 201.985 125.513 202.257 125.196C202.575 124.879 202.983 124.72 203.482 124.72H208.99C209.443 124.72 209.828 124.879 210.146 125.196C210.463 125.513 210.622 125.899 210.622 126.352V137.64H219.122C219.575 137.64 219.96 137.799 220.278 138.116C220.595 138.433 220.754 138.819 220.754 139.272V143.216C220.754 143.669 220.595 144.055 220.278 144.372C219.96 144.689 219.575 144.848 219.122 144.848H210.622V159.604C210.622 161.463 210.939 162.913 211.574 163.956C212.254 164.999 213.41 165.52 215.042 165.52H219.734C220.187 165.52 220.572 165.679 220.89 165.996C221.207 166.313 221.366 166.699 221.366 167.152V171.368C221.366 171.821 221.207 172.207 220.89 172.524C220.572 172.841 220.187 173 219.734 173H214.226ZM241.678 173.68C238.051 173.68 234.991 173.045 232.498 171.776C230.05 170.507 228.169 168.716 226.854 166.404C225.585 164.092 224.859 161.395 224.678 158.312C224.633 157.496 224.61 156.499 224.61 155.32C224.61 154.141 224.633 153.144 224.678 152.328C224.859 149.2 225.607 146.503 226.922 144.236C228.282 141.924 230.186 140.133 232.634 138.864C235.127 137.595 238.142 136.96 241.678 136.96C245.214 136.96 248.206 137.595 250.654 138.864C253.147 140.133 255.051 141.924 256.366 144.236C257.726 146.503 258.497 149.2 258.678 152.328C258.723 153.144 258.746 154.141 258.746 155.32C258.746 156.499 258.723 157.496 258.678 158.312C258.497 161.395 257.749 164.092 256.434 166.404C255.165 168.716 253.283 170.507 250.79 171.776C248.342 173.045 245.305 173.68 241.678 173.68ZM241.678 166.948C244.081 166.948 245.939 166.2 247.254 164.704C248.569 163.163 249.294 160.919 249.43 157.972C249.475 157.292 249.498 156.408 249.498 155.32C249.498 154.232 249.475 153.348 249.43 152.668C249.294 149.767 248.569 147.545 247.254 146.004C245.939 144.463 244.081 143.692 241.678 143.692C239.275 143.692 237.417 144.463 236.102 146.004C234.787 147.545 234.062 149.767 233.926 152.668C233.881 153.348 233.858 154.232 233.858 155.32C233.858 156.408 233.881 157.292 233.926 157.972C234.062 160.919 234.787 163.163 236.102 164.704C237.417 166.2 239.275 166.948 241.678 166.948Z" fill="#000150"/>
<path d="M68.5 182C74.9279 182 81.2114 180.094 86.556 176.523C91.9006 172.952 96.0662 167.876 98.5261 161.937C100.986 155.999 101.63 149.464 100.376 143.16C99.1215 136.855 96.0262 131.064 91.481 126.519C86.9357 121.974 81.1448 118.879 74.8404 117.624C68.536 116.37 62.0014 117.014 56.0628 119.474C50.1242 121.934 45.0484 126.099 41.4772 131.444C37.9061 136.789 36 143.072 36 149.5C36 154.7 37.2206 159.611 39.3944 163.97C41.0303 167.259 38.7553 171.697 37.8886 174.937C37.6966 175.653 37.6966 176.407 37.8885 177.124C38.0805 177.84 38.4576 178.493 38.9821 179.018C39.5065 179.542 40.1598 179.92 40.8762 180.111C41.5926 180.303 42.3469 180.303 43.0633 180.111C46.3025 179.245 50.7406 176.97 54.0303 178.609C58.5269 180.842 63.4796 182.002 68.5 182Z" stroke="#000150" stroke-width="8" stroke-linecap="round" stroke-linejoin="round"/>
<path d="M79.9691 136.84C80.5414 136.295 81.303 135.994 82.0931 136C82.8832 136.006 83.6401 136.319 84.2041 136.872C84.768 137.426 85.0949 138.176 85.1158 138.966C85.1367 139.756 84.8499 140.523 84.316 141.106L68.1066 161.378C67.8279 161.678 67.4915 161.919 67.1175 162.086C66.7436 162.253 66.3397 162.343 65.9301 162.351C65.5206 162.359 65.1137 162.283 64.7338 162.13C64.3539 161.977 64.0088 161.749 63.7191 161.459L52.9698 150.71C52.6704 150.431 52.4303 150.094 52.2638 149.72C52.0972 149.347 52.0077 148.943 52.0005 148.534C51.9933 148.125 52.0685 147.719 52.2218 147.339C52.375 146.96 52.6031 146.615 52.8924 146.326C53.1817 146.037 53.5264 145.809 53.9058 145.655C54.2852 145.502 54.6915 145.427 55.1006 145.434C55.5097 145.441 55.9132 145.531 56.2869 145.697C56.6607 145.864 56.9971 146.104 57.276 146.403L65.7829 154.906L79.8919 136.93L79.9691 136.84Z" fill="#43C97B"/>
</svg>
