<svg width="231" height="81" viewBox="0 0 231 81" fill="none" xmlns="http://www.w3.org/2000/svg">
<path d="M88.3519 64C87.8986 64 87.5133 63.8413 87.1959 63.524C86.8786 63.2067 86.7199 62.8213 86.7199 62.368V18.1C86.7199 17.6013 86.8786 17.1933 87.1959 16.876C87.5133 16.5587 87.8986 16.4 88.3519 16.4H105.964C111.449 16.4 115.779 17.6693 118.952 20.208C122.125 22.7467 123.712 26.4413 123.712 31.292C123.712 34.6467 122.873 37.4347 121.196 39.656C119.564 41.8773 117.365 43.4867 114.6 44.484L124.528 61.824C124.664 62.096 124.732 62.3453 124.732 62.572C124.732 62.98 124.573 63.32 124.256 63.592C123.984 63.864 123.667 64 123.304 64H117.116C116.345 64 115.756 63.796 115.348 63.388C114.94 62.98 114.623 62.572 114.396 62.164L105.624 46.048H96.1719V62.368C96.1719 62.8213 96.0133 63.2067 95.6959 63.524C95.4239 63.8413 95.0386 64 94.5399 64H88.3519ZM96.1719 38.364H105.76C108.525 38.364 110.588 37.752 111.948 36.528C113.308 35.2587 113.988 33.4907 113.988 31.224C113.988 28.9573 113.308 27.1893 111.948 25.92C110.633 24.6053 108.571 23.948 105.76 23.948H96.1719V38.364ZM140.566 64.68C138.209 64.68 136.078 64.2267 134.174 63.32C132.27 62.368 130.751 61.1213 129.618 59.58C128.53 57.9933 127.986 56.2253 127.986 54.276C127.986 51.1027 129.255 48.5867 131.794 46.728C134.378 44.824 137.778 43.5547 141.994 42.92L151.31 41.56V40.132C151.31 38.228 150.834 36.7547 149.882 35.712C148.93 34.6693 147.298 34.148 144.986 34.148C143.354 34.148 142.017 34.488 140.974 35.168C139.977 35.8027 139.229 36.664 138.73 37.752C138.367 38.3413 137.846 38.636 137.166 38.636H131.794C131.295 38.636 130.91 38.5 130.638 38.228C130.411 37.956 130.298 37.5933 130.298 37.14C130.343 36.4147 130.638 35.5307 131.182 34.488C131.726 33.4453 132.587 32.448 133.766 31.496C134.945 30.4987 136.463 29.66 138.322 28.98C140.181 28.3 142.425 27.96 145.054 27.96C147.91 27.96 150.313 28.3227 152.262 29.048C154.257 29.728 155.843 30.6573 157.022 31.836C158.201 33.0147 159.062 34.3973 159.606 35.984C160.15 37.5707 160.422 39.248 160.422 41.016V62.368C160.422 62.8213 160.263 63.2067 159.946 63.524C159.629 63.8413 159.243 64 158.79 64H153.282C152.783 64 152.375 63.8413 152.058 63.524C151.786 63.2067 151.65 62.8213 151.65 62.368V59.716C151.061 60.5773 150.267 61.3933 149.27 62.164C148.273 62.8893 147.049 63.5013 145.598 64C144.193 64.4533 142.515 64.68 140.566 64.68ZM142.878 58.22C144.465 58.22 145.893 57.88 147.162 57.2C148.477 56.52 149.497 55.4773 150.222 54.072C150.993 52.6213 151.378 50.808 151.378 48.632V47.204L144.578 48.292C141.903 48.7 139.909 49.3573 138.594 50.264C137.279 51.1707 136.622 52.2813 136.622 53.596C136.622 54.5933 136.917 55.4547 137.506 56.18C138.141 56.86 138.934 57.3813 139.886 57.744C140.838 58.0613 141.835 58.22 142.878 58.22ZM183.433 64C180.713 64 178.424 63.524 176.565 62.572C174.707 61.62 173.324 60.2147 172.417 58.356C171.511 56.452 171.057 54.0947 171.057 51.284V35.848H165.685C165.232 35.848 164.847 35.6893 164.529 35.372C164.212 35.0547 164.053 34.6693 164.053 34.216V30.272C164.053 29.8187 164.212 29.4333 164.529 29.116C164.847 28.7987 165.232 28.64 165.685 28.64H171.057V17.352C171.057 16.8987 171.193 16.5133 171.465 16.196C171.783 15.8787 172.191 15.72 172.689 15.72H178.197C178.651 15.72 179.036 15.8787 179.353 16.196C179.671 16.5133 179.829 16.8987 179.829 17.352V28.64H188.329C188.783 28.64 189.168 28.7987 189.485 29.116C189.803 29.4333 189.961 29.8187 189.961 30.272V34.216C189.961 34.6693 189.803 35.0547 189.485 35.372C189.168 35.6893 188.783 35.848 188.329 35.848H179.829V50.604C179.829 52.4627 180.147 53.9133 180.781 54.956C181.461 55.9987 182.617 56.52 184.249 56.52H188.941C189.395 56.52 189.78 56.6787 190.097 56.996C190.415 57.3133 190.573 57.6987 190.573 58.152V62.368C190.573 62.8213 190.415 63.2067 190.097 63.524C189.78 63.8413 189.395 64 188.941 64H183.433ZM210.886 64.68C207.259 64.68 204.199 64.0453 201.706 62.776C199.258 61.5067 197.376 59.716 196.062 57.404C194.792 55.092 194.067 52.3947 193.886 49.312C193.84 48.496 193.818 47.4987 193.818 46.32C193.818 45.1413 193.84 44.144 193.886 43.328C194.067 40.2 194.815 37.5027 196.13 35.236C197.49 32.924 199.394 31.1333 201.842 29.864C204.335 28.5947 207.35 27.96 210.886 27.96C214.422 27.96 217.414 28.5947 219.862 29.864C222.355 31.1333 224.259 32.924 225.574 35.236C226.934 37.5027 227.704 40.2 227.886 43.328C227.931 44.144 227.954 45.1413 227.954 46.32C227.954 47.4987 227.931 48.496 227.886 49.312C227.704 52.3947 226.956 55.092 225.642 57.404C224.372 59.716 222.491 61.5067 219.998 62.776C217.55 64.0453 214.512 64.68 210.886 64.68ZM210.886 57.948C213.288 57.948 215.147 57.2 216.462 55.704C217.776 54.1627 218.502 51.9187 218.638 48.972C218.683 48.292 218.706 47.408 218.706 46.32C218.706 45.232 218.683 44.348 218.638 43.668C218.502 40.7667 217.776 38.5453 216.462 37.004C215.147 35.4627 213.288 34.692 210.886 34.692C208.483 34.692 206.624 35.4627 205.31 37.004C203.995 38.5453 203.27 40.7667 203.134 43.668C203.088 44.348 203.066 45.232 203.066 46.32C203.066 47.408 203.088 48.292 203.134 48.972C203.27 51.9187 203.995 54.1627 205.31 55.704C206.624 57.2 208.483 57.948 210.886 57.948Z" fill="#000150"/>
<path d="M36.5 73C42.9279 73 49.2114 71.0939 54.556 67.5228C59.9006 63.9516 64.0662 58.8758 66.5261 52.9372C68.9859 46.9986 69.6295 40.464 68.3755 34.1596C67.1215 27.8552 64.0262 22.0642 59.481 17.519C54.9357 12.9738 49.1448 9.87851 42.8404 8.62449C36.536 7.37047 30.0014 8.01408 24.0628 10.4739C18.1242 12.9338 13.0484 17.0994 9.47724 22.444C5.90609 27.7886 4 34.0721 4 40.5C4 45.7 5.22056 50.6111 7.39444 54.9697C9.03028 58.2594 6.75528 62.6975 5.88861 65.9367C5.69661 66.6531 5.69657 67.4074 5.88851 68.1238C6.08046 68.8402 6.45761 69.4935 6.98206 70.0179C7.50651 70.5424 8.15977 70.9195 8.87619 71.1115C9.59261 71.3034 10.3469 71.3034 11.0633 71.1114C14.3025 70.2447 18.7406 67.9697 22.0303 69.6092C26.5269 71.8419 31.4796 73.0025 36.5 73Z" stroke="#000150" stroke-width="8" stroke-linecap="round" stroke-linejoin="round"/>
<path d="M47.9691 27.8401C48.5414 27.2953 49.303 26.9941 50.0931 27.0001C50.8832 27.0061 51.6401 27.3188 52.2041 27.8722C52.768 28.4256 53.0949 29.1765 53.1158 29.9663C53.1367 30.7562 52.8499 31.5233 52.316 32.1058L36.1066 52.3776C35.8279 52.6778 35.4915 52.9188 35.1175 53.086C34.7436 53.2532 34.3397 53.3433 33.9301 53.3509C33.5206 53.3585 33.1137 53.2834 32.7338 53.1301C32.3539 52.9769 32.0088 52.7486 31.7191 52.4589L20.9698 41.7095C20.6704 41.4306 20.4303 41.0942 20.2638 40.7204C20.0972 40.3467 20.0077 39.9432 20.0005 39.5341C19.9933 39.125 20.0685 38.7187 20.2218 38.3393C20.375 37.9599 20.6031 37.6152 20.8924 37.3259C21.1817 37.0366 21.5264 36.8085 21.9058 36.6553C22.2852 36.502 22.6915 36.4268 23.1006 36.434C23.5097 36.4412 23.9132 36.5307 24.2869 36.6973C24.6607 36.8638 24.9971 37.1039 25.276 37.4033L33.7829 45.9061L47.8919 27.9295L47.9691 27.8401Z" fill="#43C97B"/>
</svg>
