<svg width="113" height="39" viewBox="0 0 113 39" fill="none" xmlns="http://www.w3.org/2000/svg">
<path d="M45.8715 30C45.6582 30 45.4768 29.9253 45.3275 29.776C45.1782 29.6267 45.1035 29.4453 45.1035 29.232V8.4C45.1035 8.16533 45.1782 7.97333 45.3275 7.824C45.4768 7.67467 45.6582 7.6 45.8715 7.6H54.1595C56.7408 7.6 58.7782 8.19733 60.2715 9.392C61.7648 10.5867 62.5115 12.3253 62.5115 14.608C62.5115 16.1867 62.1168 17.4987 61.3275 18.544C60.5595 19.5893 59.5248 20.3467 58.2235 20.816L62.8955 28.976C62.9595 29.104 62.9915 29.2213 62.9915 29.328C62.9915 29.52 62.9168 29.68 62.7675 29.808C62.6395 29.936 62.4902 30 62.3195 30H59.4075C59.0448 30 58.7675 29.904 58.5755 29.712C58.3835 29.52 58.2342 29.328 58.1275 29.136L53.9995 21.552H49.5515V29.232C49.5515 29.4453 49.4768 29.6267 49.3275 29.776C49.1995 29.9253 49.0182 30 48.7835 30H45.8715ZM49.5515 17.936H54.0635C55.3648 17.936 56.3355 17.648 56.9755 17.072C57.6155 16.4747 57.9355 15.6427 57.9355 14.576C57.9355 13.5093 57.6155 12.6773 56.9755 12.08C56.3568 11.4613 55.3862 11.152 54.0635 11.152H49.5515V17.936ZM70.4427 30.32C69.3334 30.32 68.3307 30.1067 67.4347 29.68C66.5387 29.232 65.8241 28.6453 65.2907 27.92C64.7787 27.1733 64.5227 26.3413 64.5227 25.424C64.5227 23.9307 65.1201 22.7467 66.3147 21.872C67.5307 20.976 69.1307 20.3787 71.1147 20.08L75.4987 19.44V18.768C75.4987 17.872 75.2747 17.1787 74.8267 16.688C74.3787 16.1973 73.6107 15.952 72.5227 15.952C71.7547 15.952 71.1254 16.112 70.6347 16.432C70.1654 16.7307 69.8134 17.136 69.5787 17.648C69.4081 17.9253 69.1627 18.064 68.8427 18.064H66.3147C66.0801 18.064 65.8987 18 65.7707 17.872C65.6641 17.744 65.6107 17.5733 65.6107 17.36C65.6321 17.0187 65.7707 16.6027 66.0267 16.112C66.2827 15.6213 66.6881 15.152 67.2427 14.704C67.7974 14.2347 68.5121 13.84 69.3867 13.52C70.2614 13.2 71.3174 13.04 72.5547 13.04C73.8987 13.04 75.0294 13.2107 75.9467 13.552C76.8854 13.872 77.6321 14.3093 78.1867 14.864C78.7414 15.4187 79.1467 16.0693 79.4027 16.816C79.6587 17.5627 79.7867 18.352 79.7867 19.184V29.232C79.7867 29.4453 79.7121 29.6267 79.5627 29.776C79.4134 29.9253 79.2321 30 79.0187 30H76.4267C76.1921 30 76.0001 29.9253 75.8507 29.776C75.7227 29.6267 75.6587 29.4453 75.6587 29.232V27.984C75.3814 28.3893 75.0081 28.7733 74.5387 29.136C74.0694 29.4773 73.4934 29.7653 72.8107 30C72.1494 30.2133 71.3601 30.32 70.4427 30.32ZM71.5307 27.28C72.2774 27.28 72.9494 27.12 73.5467 26.8C74.1654 26.48 74.6454 25.9893 74.9867 25.328C75.3494 24.6453 75.5307 23.792 75.5307 22.768V22.096L72.3307 22.608C71.0721 22.8 70.1334 23.1093 69.5147 23.536C68.8961 23.9627 68.5867 24.4853 68.5867 25.104C68.5867 25.5733 68.7254 25.9787 69.0027 26.32C69.3014 26.64 69.6747 26.8853 70.1227 27.056C70.5707 27.2053 71.0401 27.28 71.5307 27.28ZM90.6158 30C89.3357 30 88.2584 29.776 87.3837 29.328C86.5091 28.88 85.8584 28.2187 85.4317 27.344C85.0051 26.448 84.7917 25.3387 84.7917 24.016V16.752H82.2637C82.0504 16.752 81.8691 16.6773 81.7197 16.528C81.5704 16.3787 81.4957 16.1973 81.4957 15.984V14.128C81.4957 13.9147 81.5704 13.7333 81.7197 13.584C81.8691 13.4347 82.0504 13.36 82.2637 13.36H84.7917V8.048C84.7917 7.83467 84.8557 7.65333 84.9837 7.504C85.1331 7.35467 85.3251 7.28 85.5597 7.28H88.1517C88.3651 7.28 88.5464 7.35467 88.6957 7.504C88.8451 7.65333 88.9197 7.83467 88.9197 8.048V13.36H92.9198C93.1331 13.36 93.3144 13.4347 93.4637 13.584C93.6131 13.7333 93.6877 13.9147 93.6877 14.128V15.984C93.6877 16.1973 93.6131 16.3787 93.4637 16.528C93.3144 16.6773 93.1331 16.752 92.9198 16.752H88.9197V23.696C88.9197 24.5707 89.0691 25.2533 89.3678 25.744C89.6877 26.2347 90.2317 26.48 90.9998 26.48H93.2078C93.4211 26.48 93.6024 26.5547 93.7517 26.704C93.9011 26.8533 93.9757 27.0347 93.9757 27.248V29.232C93.9757 29.4453 93.9011 29.6267 93.7517 29.776C93.6024 29.9253 93.4211 30 93.2078 30H90.6158ZM103.535 30.32C101.828 30.32 100.388 30.0213 99.2145 29.424C98.0625 28.8267 97.1772 27.984 96.5585 26.896C95.9612 25.808 95.6198 24.5387 95.5345 23.088C95.5132 22.704 95.5025 22.2347 95.5025 21.68C95.5025 21.1253 95.5132 20.656 95.5345 20.272C95.6198 18.8 95.9718 17.5307 96.5905 16.464C97.2305 15.376 98.1265 14.5333 99.2785 13.936C100.452 13.3387 101.871 13.04 103.535 13.04C105.199 13.04 106.607 13.3387 107.759 13.936C108.932 14.5333 109.828 15.376 110.447 16.464C111.087 17.5307 111.449 18.8 111.535 20.272C111.556 20.656 111.567 21.1253 111.567 21.68C111.567 22.2347 111.556 22.704 111.535 23.088C111.449 24.5387 111.097 25.808 110.479 26.896C109.881 27.984 108.996 28.8267 107.823 29.424C106.671 30.0213 105.241 30.32 103.535 30.32ZM103.535 27.152C104.665 27.152 105.54 26.8 106.159 26.096C106.777 25.3707 107.119 24.3147 107.183 22.928C107.204 22.608 107.215 22.192 107.215 21.68C107.215 21.168 107.204 20.752 107.183 20.432C107.119 19.0667 106.777 18.0213 106.159 17.296C105.54 16.5707 104.665 16.208 103.535 16.208C102.404 16.208 101.529 16.5707 100.911 17.296C100.292 18.0213 99.9505 19.0667 99.8865 20.432C99.8652 20.752 99.8545 21.168 99.8545 21.68C99.8545 22.192 99.8652 22.608 99.8865 22.928C99.9505 24.3147 100.292 25.3707 100.911 26.096C101.529 26.8 102.404 27.152 103.535 27.152Z" fill="#000150"/>
<path d="M20.5 37C23.9612 37 27.3446 35.9736 30.2225 34.0507C33.1003 32.1278 35.3433 29.3947 36.6679 26.197C37.9924 22.9993 38.339 19.4806 37.6637 16.0859C36.9885 12.6913 35.3218 9.57306 32.8744 7.12564C30.4269 4.67822 27.3087 3.01151 23.9141 2.33627C20.5194 1.66102 17.0007 2.00758 13.803 3.33212C10.6053 4.65665 7.87221 6.89967 5.94928 9.77753C4.02636 12.6554 3 16.0388 3 19.5C3 22.3 3.65722 24.9444 4.82778 27.2914C5.70861 29.0628 4.48361 31.4525 4.01694 33.1967C3.91356 33.5824 3.91354 33.9886 4.01689 34.3744C4.12025 34.7601 4.32333 35.1119 4.60572 35.3943C4.88812 35.6767 5.23988 35.8797 5.62564 35.9831C6.0114 36.0865 6.41758 36.0864 6.80333 35.9831C8.5475 35.5164 10.9372 34.2914 12.7086 35.1742C15.1299 36.3764 17.7967 37.0013 20.5 37Z" stroke="#000150" stroke-width="4" stroke-linecap="round" stroke-linejoin="round"/>
<path d="M29.1729 11.0996C29.6239 11.103 30.0568 11.2828 30.3789 11.6006C30.701 11.9184 30.8875 12.3499 30.8994 12.8037C30.9099 13.2008 30.7854 13.5877 30.5498 13.9023L30.4424 14.0322L30.4385 14.0381L20.6533 26.3408C20.4941 26.5132 20.3023 26.6521 20.0889 26.748C19.8754 26.844 19.6448 26.895 19.4111 26.8994C19.1773 26.9038 18.9445 26.8614 18.7275 26.7734C18.565 26.7075 18.4136 26.6169 18.2783 26.5059L18.1484 26.3877L11.6562 19.8604L11.6543 19.8584L11.5322 19.7324C11.417 19.6004 11.3224 19.4511 11.251 19.29C11.1558 19.0754 11.1047 18.8434 11.1006 18.6084C11.0965 18.3734 11.139 18.1397 11.2266 17.9219C11.3141 17.7041 11.4442 17.5059 11.6094 17.3398C11.7746 17.1737 11.9719 17.043 12.1885 16.9551C12.4051 16.8671 12.6375 16.824 12.8711 16.8281C13.1045 16.8323 13.3346 16.884 13.5479 16.9795C13.7078 17.0511 13.8561 17.1461 13.9873 17.2617L14.1133 17.3848L14.1152 17.3867L19.2529 22.5498L19.333 22.6299L19.4023 22.541L27.9238 11.626L27.9229 11.625L27.9629 11.5781C28.2893 11.2674 28.7235 11.0963 29.1729 11.0996Z" fill="#43C97B" stroke="black" stroke-width="0.2"/>
</svg>
