<svg width="100" height="39" viewBox="0 0 100 39" fill="none" xmlns="http://www.w3.org/2000/svg">
<path d="M45.4581 28C45.2848 28 45.1374 27.9393 45.0161 27.818C44.8948 27.6967 44.8341 27.5493 44.8341 27.376V10.45C44.8341 10.2593 44.8948 10.1033 45.0161 9.982C45.1374 9.86067 45.2848 9.8 45.4581 9.8H52.1921C54.2894 9.8 55.9448 10.2853 57.1581 11.256C58.3714 12.2267 58.9781 13.6393 58.9781 15.494C58.9781 16.7767 58.6574 17.8427 58.0161 18.692C57.3921 19.5413 56.5514 20.1567 55.4941 20.538L59.2901 27.168C59.3421 27.272 59.3681 27.3673 59.3681 27.454C59.3681 27.61 59.3074 27.74 59.1861 27.844C59.0821 27.948 58.9608 28 58.8221 28H56.4561C56.1614 28 55.9361 27.922 55.7801 27.766C55.6241 27.61 55.5028 27.454 55.4161 27.298L52.0621 21.136H48.4481V27.376C48.4481 27.5493 48.3874 27.6967 48.2661 27.818C48.1621 27.9393 48.0148 28 47.8241 28H45.4581ZM48.4481 18.198H52.1141C53.1714 18.198 53.9601 17.964 54.4801 17.496C55.0001 17.0107 55.2601 16.3347 55.2601 15.468C55.2601 14.6013 55.0001 13.9253 54.4801 13.44C53.9774 12.9373 53.1888 12.686 52.1141 12.686H48.4481V18.198ZM65.4222 28.26C64.5209 28.26 63.7062 28.0867 62.9782 27.74C62.2502 27.376 61.6696 26.8993 61.2362 26.31C60.8202 25.7033 60.6122 25.0273 60.6122 24.282C60.6122 23.0687 61.0976 22.1067 62.0682 21.396C63.0562 20.668 64.3562 20.1827 65.9682 19.94L69.5302 19.42V18.874C69.5302 18.146 69.3482 17.5827 68.9842 17.184C68.6202 16.7853 67.9962 16.586 67.1122 16.586C66.4882 16.586 65.9769 16.716 65.5782 16.976C65.1969 17.2187 64.9109 17.548 64.7202 17.964C64.5816 18.1893 64.3822 18.302 64.1222 18.302H62.0682C61.8776 18.302 61.7302 18.25 61.6262 18.146C61.5396 18.042 61.4962 17.9033 61.4962 17.73C61.5136 17.4527 61.6262 17.1147 61.8342 16.716C62.0422 16.3173 62.3716 15.936 62.8222 15.572C63.2729 15.1907 63.8536 14.87 64.5642 14.61C65.2749 14.35 66.1329 14.22 67.1382 14.22C68.2302 14.22 69.1489 14.3587 69.8942 14.636C70.6569 14.896 71.2636 15.2513 71.7142 15.702C72.1649 16.1527 72.4942 16.6813 72.7022 17.288C72.9102 17.8947 73.0142 18.536 73.0142 19.212V27.376C73.0142 27.5493 72.9536 27.6967 72.8322 27.818C72.7109 27.9393 72.5636 28 72.3902 28H70.2842C70.0936 28 69.9376 27.9393 69.8162 27.818C69.7122 27.6967 69.6602 27.5493 69.6602 27.376V26.362C69.4349 26.6913 69.1316 27.0033 68.7502 27.298C68.3689 27.5753 67.9009 27.8093 67.3462 28C66.8089 28.1733 66.1676 28.26 65.4222 28.26ZM66.3062 25.79C66.9129 25.79 67.4589 25.66 67.9442 25.4C68.4469 25.14 68.8369 24.7413 69.1142 24.204C69.4089 23.6493 69.5562 22.956 69.5562 22.124V21.578L66.9562 21.994C65.9336 22.15 65.1709 22.4013 64.6682 22.748C64.1656 23.0947 63.9142 23.5193 63.9142 24.022C63.9142 24.4033 64.0269 24.7327 64.2522 25.01C64.4949 25.27 64.7982 25.4693 65.1622 25.608C65.5262 25.7293 65.9076 25.79 66.3062 25.79ZM81.8128 28C80.7728 28 79.8975 27.818 79.1868 27.454C78.4761 27.09 77.9475 26.5527 77.6008 25.842C77.2541 25.114 77.0808 24.2127 77.0808 23.138V17.236H75.0268C74.8535 17.236 74.7061 17.1753 74.5848 17.054C74.4635 16.9327 74.4028 16.7853 74.4028 16.612V15.104C74.4028 14.9307 74.4635 14.7833 74.5848 14.662C74.7061 14.5407 74.8535 14.48 75.0268 14.48H77.0808V10.164C77.0808 9.99067 77.1328 9.84333 77.2368 9.722C77.3581 9.60067 77.5141 9.54 77.7048 9.54H79.8108C79.9841 9.54 80.1315 9.60067 80.2528 9.722C80.3741 9.84333 80.4348 9.99067 80.4348 10.164V14.48H83.6848C83.8581 14.48 84.0055 14.5407 84.1268 14.662C84.2481 14.7833 84.3088 14.9307 84.3088 15.104V16.612C84.3088 16.7853 84.2481 16.9327 84.1268 17.054C84.0055 17.1753 83.8581 17.236 83.6848 17.236H80.4348V22.878C80.4348 23.5887 80.5561 24.1433 80.7988 24.542C81.0588 24.9407 81.5008 25.14 82.1248 25.14H83.9188C84.0921 25.14 84.2395 25.2007 84.3608 25.322C84.4821 25.4433 84.5428 25.5907 84.5428 25.764V27.376C84.5428 27.5493 84.4821 27.6967 84.3608 27.818C84.2395 27.9393 84.0921 28 83.9188 28H81.8128ZM92.3093 28.26C90.9226 28.26 89.7526 28.0173 88.7993 27.532C87.8633 27.0467 87.1439 26.362 86.6413 25.478C86.1559 24.594 85.8786 23.5627 85.8093 22.384C85.7919 22.072 85.7833 21.6907 85.7833 21.24C85.7833 20.7893 85.7919 20.408 85.8093 20.096C85.8786 18.9 86.1646 17.8687 86.6673 17.002C87.1873 16.118 87.9153 15.4333 88.8513 14.948C89.8046 14.4627 90.9573 14.22 92.3093 14.22C93.6613 14.22 94.8053 14.4627 95.7413 14.948C96.6946 15.4333 97.4226 16.118 97.9253 17.002C98.4453 17.8687 98.7399 18.9 98.8093 20.096C98.8266 20.408 98.8353 20.7893 98.8353 21.24C98.8353 21.6907 98.8266 22.072 98.8093 22.384C98.7399 23.5627 98.4539 24.594 97.9513 25.478C97.4659 26.362 96.7466 27.0467 95.7933 27.532C94.8573 28.0173 93.6959 28.26 92.3093 28.26ZM92.3093 25.686C93.2279 25.686 93.9386 25.4 94.4413 24.828C94.9439 24.2387 95.2213 23.3807 95.2733 22.254C95.2906 21.994 95.2993 21.656 95.2993 21.24C95.2993 20.824 95.2906 20.486 95.2733 20.226C95.2213 19.1167 94.9439 18.2673 94.4413 17.678C93.9386 17.0887 93.2279 16.794 92.3093 16.794C91.3906 16.794 90.6799 17.0887 90.1773 17.678C89.6746 18.2673 89.3973 19.1167 89.3453 20.226C89.3279 20.486 89.3193 20.824 89.3193 21.24C89.3193 21.656 89.3279 21.994 89.3453 22.254C89.3973 23.3807 89.6746 24.2387 90.1773 24.828C90.6799 25.4 91.3906 25.686 92.3093 25.686Z" fill="#000150"/>
<path d="M20.5 37C23.9612 37 27.3446 35.9736 30.2225 34.0507C33.1003 32.1278 35.3433 29.3947 36.6679 26.197C37.9924 22.9993 38.339 19.4806 37.6637 16.0859C36.9885 12.6913 35.3218 9.57306 32.8744 7.12564C30.4269 4.67822 27.3087 3.01151 23.9141 2.33627C20.5194 1.66102 17.0007 2.00758 13.803 3.33212C10.6053 4.65665 7.87221 6.89967 5.94928 9.77753C4.02636 12.6554 3 16.0388 3 19.5C3 22.3 3.65722 24.9444 4.82778 27.2914C5.70861 29.0628 4.48361 31.4525 4.01694 33.1967C3.91356 33.5824 3.91354 33.9886 4.01689 34.3744C4.12025 34.7601 4.32333 35.1119 4.60572 35.3943C4.88812 35.6767 5.23988 35.8797 5.62564 35.9831C6.0114 36.0865 6.41758 36.0864 6.80333 35.9831C8.5475 35.5164 10.9372 34.2914 12.7086 35.1742C15.1299 36.3764 17.7967 37.0013 20.5 37Z" stroke="#000150" stroke-width="4" stroke-linecap="round" stroke-linejoin="round"/>
<path d="M29.1729 11.0996C29.6239 11.103 30.0568 11.2828 30.3789 11.6006C30.701 11.9184 30.8875 12.3499 30.8994 12.8037C30.9099 13.2008 30.7854 13.5877 30.5498 13.9023L30.4424 14.0322L30.4385 14.0381L20.6533 26.3408C20.4941 26.5132 20.3023 26.6521 20.0889 26.748C19.8754 26.844 19.6448 26.895 19.4111 26.8994C19.1773 26.9038 18.9445 26.8614 18.7275 26.7734C18.565 26.7075 18.4136 26.6169 18.2783 26.5059L18.1484 26.3877L11.6562 19.8604L11.6543 19.8584L11.5322 19.7324C11.417 19.6004 11.3224 19.4511 11.251 19.29C11.1558 19.0754 11.1047 18.8434 11.1006 18.6084C11.0965 18.3734 11.139 18.1397 11.2266 17.9219C11.3141 17.7041 11.4442 17.5059 11.6094 17.3398C11.7746 17.1737 11.9719 17.043 12.1885 16.9551C12.4051 16.8671 12.6375 16.824 12.8711 16.8281C13.1045 16.8323 13.3346 16.884 13.5479 16.9795C13.7078 17.0511 13.8561 17.1461 13.9873 17.2617L14.1133 17.3848L14.1152 17.3867L19.2529 22.5498L19.333 22.6299L19.4023 22.541L27.9238 11.626L27.9229 11.625L27.9629 11.5781C28.2893 11.2674 28.7235 11.0963 29.1729 11.0996Z" fill="#43C97B" stroke="black" stroke-width="0.2"/>
</svg>
